<?xml version="1.0" encoding="UTF-8"?><svg id="Layer_2" xmlns="http://www.w3.org/2000/svg" viewBox="0 0 450.14 462.09"><defs><style>.cls-1{fill:#f6f6f6;}.cls-2{fill:#656565;}.cls-3{fill:#d0a30d;}.cls-4{fill:#703f1c;}.cls-5{fill:#020101;}.cls-6{fill:#19243e;}.cls-7{fill:#f0c2ae;}.cls-8{fill:#fefefe;}</style></defs><g id="Layer_1-2"><path class="cls-6" d="M315.98,414.74c-27.61,9.14-55.92,14.43-85.04,14.67-30.63,.26-60.53-4.61-89.75-13.76-21.29-6.67-41.41-15.98-60.8-26.93-.47-.83-1.14-.86-1.92-.47,.33,.44,.67,.88,1,1.32,16.63,20.74,38.92,32.67,64.31,41.03-5.95,7.34-11.67,14.41-17.4,21.47-.84,1.03-1.93,1.92-2.54,3.07-3.27,6.15-8.39,7.41-14.98,6.81-33.87-3.07-64.56-13.78-90.29-36.74-3.1-2.77-5.76-6.06-9-8.64C-1.09,408.09-.33,396.48,.34,384.75c4.03-69.8,21.87-135.93,52.54-198.68,1.66-3.4,3.82-6.02,6.93-8.2,13.26-9.29,27.38-16.99,42.54-23.35-1.52-2.2-4.01-2.42-5.96-3.43-27.13-13.99-48.51-33.82-56.26-63.98-6.8-26.49-1.18-52.12,13.52-75.39,2.97-4.7,7.22-8.3,12.46-10.44,7.2-2.94,12.21-.78,15.24,6.44,1.82,4.34,2.45,8.96,3.13,13.57,2.32,15.71,9.72,29.58,16.08,43.81,2.71,6.06,5.78,11.97,8.99,17.78,2.91,5.25,7.05,9.25,13.17,10.68,6.1,1.43,8.78-.54,9.39-6.74,.79-7.98-1.06-15.52-3.61-22.97-3.56-10.4-8.27-20.29-13.24-30.08-2.33-4.58-4.35-9.31-5.56-14.38-1.07-4.46,.36-7.49,4.27-9.51,10.67-5.52,21.59-4.21,31.77,.55,15.39,7.21,28.43,17.73,39.14,31.08,14.27,17.8,16.5,38.7,15.85,60.36-.15,4.97-.88,9.93-2.13,14.78-6.07,23.5-22.97,37.84-48.78,41.36-2.14,.29-4.33,1.01-6.43,.79-15.23-1.55-27.58,5.99-40.2,12.57-11.16,5.82-21.77,12.57-31.69,20.65,99.41-45.33,198.78-48.24,298.47-.66,.8-1.55-1.11-2.09-2.15-2.85-15.94-11.6-33.1-21.12-51.44-28.23-5.41-2.1-11.81-1.5-17.68-2.59-30.23-5.61-45.87-21.97-48.74-52.62-2.11-22.45,.38-44.24,14.99-62.95,10.75-13.77,24.09-24.44,39.79-31.8,9.7-4.55,20.19-5.77,30.45-1.03,5.46,2.52,6.4,4.94,5.11,10.81-1.3,5.91-4.07,11.23-6.76,16.56-6.14,12.19-11.79,24.55-14.77,37.97-.96,4.3-.94,8.61-.53,12.91,.5,5.28,3.25,7.23,8.55,6.19,5.53-1.09,10.06-4.12,12.64-8.99,11.26-21.27,23.1-42.33,26.78-66.66,.65-4.26,1.46-8.53,3.61-12.39,2.75-4.93,6.75-6.65,12.16-5.08,7.87,2.28,12.94,7.94,17.01,14.6,8.06,13.2,11.42,27.86,13.09,43.03,4.17,38.12-15.58,63.78-44.21,84.77-6.03,4.42-12.79,7.64-19.82,10.75,.82,1.74,2.45,1.78,3.67,2.31,14.08,6.13,27.33,13.69,39.82,22.6,2.24,1.6,3.89,3.48,5.11,5.93,21.44,43.11,36.44,88.39,45.43,135.66,4.98,26.21,7.9,52.63,8.07,79.35,.02,3.59-1.01,6.34-3.18,9.06-22.32,27.97-51.84,43.53-86.47,50.28-8.34,1.63-16.79,2.43-25.27,2.93-1.78,.1-3.11-.13-4.34-1.64-7.86-9.65-15.81-19.22-24.03-29.17,6.23-2.15,12-4.15,17.75-6.14,4.4,2.02,6.49,6.67,10.43,9.22,1.61,3.88,4.43,6.56,8.42,7.72,5.52,1.6,11.26-1.07,13.78-6.12,2.74-5.51,.88-11.13-5.25-15.82-.32-.3-.64-.6-.96-.91l-.03,.04c-.89-2.3-3.65-3.27-4.17-5.83,9.79-6.74,19.19-13.9,25.94-24-11.08,5.7-21.84,11.73-33.31,16.34-4.29-4.19-8.59-8.38-12.88-12.57-.5-.36-1.01-.72-1.51-1.08l.07,.04c-2.22-3.99-5.77-5.54-10.03-4.62-4.51,.97-7.81,3.84-8.94,8.45-1.1,4.45-.48,8.57,3.9,11.24l-.03-.07,1.07,1.57c.76,2.75,3.62,3.85,4.87,6.22Zm35.66-90.56c.03-28.57-18.4-53.88-44.84-61.04-54.38-14.72-108.83-14.73-163.22-.04-30.68,8.29-50.68,41.73-43.81,72.83,7.11,32.17,36.62,53.14,69.17,49.26,9.65-1.15,18.8-4.28,28.11-6.74,15.14-3.99,30.32-6.25,45.82-2.41,9.68,2.4,19.34,4.92,28.99,7.43,40.4,10.53,79.75-18.71,79.79-59.3Z"/><path class="cls-4" d="M315.98,414.74c-1.25-2.37-4.11-3.47-4.87-6.22-.15-.66-.23-1.38-1.07-1.57,0,0,.03,.07,.03,.07,.32-10.72,4.44-14.84,15.07-15.07,0,0-.07-.04-.07-.04,.17,.83,.88,.9,1.51,1.08,4.29,4.19,8.59,8.38,12.88,12.57,1.71,3.27,4.06,5.92,7.36,7.65,.52,2.57,3.27,3.54,4.17,5.83-10.36-1.37-16.88,3.93-15.96,15.09-3.94-2.55-6.03-7.2-10.43-9.22-1.77-4.33-5.62-6.89-8.63-10.17Z"/><path class="cls-7" d="M351.64,324.18c-.04,40.6-39.38,69.83-79.79,59.3-9.65-2.52-19.31-5.03-28.99-7.43-15.51-3.84-30.68-1.58-45.82,2.41-9.31,2.45-18.46,5.59-28.11,6.74-32.55,3.88-62.06-17.09-69.17-49.26-6.87-31.09,13.13-64.54,43.81-72.83,54.39-14.7,108.84-14.68,163.22,.04,26.44,7.15,44.87,32.47,44.84,61.04Zm-157.52,1.45c0-1.33,.11-2.67-.02-3.99-1.62-16.33-9.23-28.86-24.53-35.39-14.41-6.15-28.16-3.78-39.99,6.58-15.03,13.16-18.74,36.63-8.88,54.33,6.75,12.1,16.81,19.77,30.85,20.81,23.92,1.77,42.55-16.98,42.55-42.34Zm61.99,.4c-.24,2.96,.18,6.43,1.04,9.82,3.79,15.1,12.53,26.1,27.63,30.72,13.79,4.22,26.35,.85,36.95-8.9,16.75-15.4,17.7-44.28,2.2-61.45-7.24-8.03-16.2-12.71-27.04-13.02-22.92-.66-40.77,17.96-40.78,42.82Z"/><path class="cls-2" d="M335.04,434.14c-.92-11.15,5.6-16.46,15.96-15.09,0,0,.03-.04,.03-.04,.32,.3,.64,.6,.96,.91,6.13,4.69,7.99,10.31,5.25,15.82-2.52,5.06-8.25,7.72-13.78,6.12-3.99-1.16-6.81-3.84-8.42-7.72Z"/><path class="cls-1" d="M346.84,413.22c-3.3-1.74-5.66-4.38-7.36-7.65,11.47-4.61,22.23-10.64,33.31-16.34-6.75,10.09-16.15,17.26-25.94,24Z"/><path class="cls-3" d="M325.15,391.95c-10.63,.23-14.75,4.35-15.07,15.07-4.39-2.67-5-6.79-3.9-11.24,1.14-4.6,4.43-7.48,8.94-8.45,4.26-.92,7.81,.63,10.03,4.62Z"/><path class="cls-8" d="M79.48,389.58c-.33-.44-.67-.88-1-1.32,.77-.39,1.44-.36,1.92,.47-.31,.28-.61,.57-.92,.85Z"/><path class="cls-3" d="M326.59,392.99c-.63-.18-1.34-.25-1.51-1.08,.5,.36,1.01,.72,1.51,1.08Z"/><path class="cls-3" d="M310.04,406.96c.84,.19,.92,.91,1.07,1.57-.36-.52-.72-1.04-1.07-1.57Z"/><path class="cls-4" d="M351.98,419.91c-.32-.3-.64-.6-.96-.91,.32,.3,.64,.6,.96,.91Z"/><path class="cls-5" d="M194.13,325.63c0,25.35-18.64,44.1-42.56,42.34-14.04-1.04-24.11-8.71-30.85-20.81-9.87-17.7-6.16-41.18,8.88-54.33,11.83-10.36,25.58-12.72,39.99-6.58,15.3,6.53,22.9,19.06,24.53,35.39,.13,1.32,.02,2.66,.02,3.99Z"/><path class="cls-5" d="M256.11,326.03c0-24.86,17.86-43.47,40.78-42.82,10.85,.31,19.8,4.99,27.04,13.02,15.49,17.16,14.54,46.04-2.2,61.45-10.6,9.75-23.16,13.12-36.95,8.9-15.1-4.62-23.84-15.62-27.63-30.72-.85-3.4-1.27-6.86-1.04-9.82Z"/></g></svg>